<?xml version="1.0" encoding="utf-8"?>
<!-- Generator: Adobe Illustrator 16.0.0, SVG Export Plug-In . SVG Version: 6.00 Build 0)  -->
<!DOCTYPE svg PUBLIC "-//W3C//DTD SVG 1.1//EN" "http://www.w3.org/Graphics/SVG/1.1/DTD/svg11.dtd">
<svg version="1.1" id="Layer_1" xmlns="http://www.w3.org/2000/svg" xmlns:xlink="http://www.w3.org/1999/xlink" x="0px" y="0px"
	 width="179.852px" height="223.127px" viewBox="0 0 179.852 223.127" enable-background="new 0 0 179.852 223.127"
	 xml:space="preserve">
<g>
	<path fill="none" d="M171.851,43.275V8H8v35.275H171.851z M119.93,15.759c2.516-2.522,6.032-4.094,9.879-4.092
		c3.845-0.002,7.362,1.57,9.878,4.092c2.521,2.516,4.095,6.034,4.093,9.879c0.002,3.845-1.57,7.363-4.093,9.879
		c-2.516,2.522-6.033,4.094-9.878,4.092c-3.847,0.002-7.363-1.57-9.879-4.092c-2.522-2.516-4.096-6.034-4.093-9.879
		C115.835,21.792,117.408,18.274,119.93,15.759z M80.046,15.759c2.517-2.522,6.034-4.094,9.879-4.092
		c3.847-0.002,7.363,1.57,9.88,4.092c2.521,2.516,4.094,6.034,4.092,9.879c0.002,3.845-1.569,7.363-4.092,9.879
		c-2.517,2.522-6.033,4.094-9.88,4.092c-3.845,0.002-7.362-1.57-9.879-4.092c-2.521-2.516-4.094-6.034-4.092-9.879
		C75.953,21.792,77.525,18.274,80.046,15.759z M40.164,15.759c2.517-2.522,6.034-4.094,9.878-4.092
		c3.847-0.002,7.364,1.57,9.879,4.092c2.522,2.516,4.095,6.034,4.093,9.879c0.002,3.845-1.57,7.363-4.093,9.879
		c-2.515,2.522-6.032,4.094-9.879,4.092c-3.845,0.002-7.362-1.57-9.878-4.092c-2.521-2.516-4.094-6.034-4.092-9.879
		C36.07,21.792,37.642,18.274,40.164,15.759z"/>
	<path fill="#FFFFFF" d="M178.68,1.172C177.935,0.427,176.905,0,175.851,0H4C2.947,0,1.917,0.427,1.171,1.172
		C0.427,1.917,0,2.947,0,4v43.275v171.852c0,2.209,1.791,4,4,4h171.852c1.054,0,2.084-0.428,2.829-1.172
		c0.744-0.744,1.171-1.774,1.171-2.828V47.275V4C179.851,2.947,179.425,1.917,178.68,1.172z M171.851,215.127H8V51.275h163.852
		V215.127z M171.851,8v35.275H8V8H171.851z"/>
	<path fill="none" d="M8,215.127h163.852V51.275H8V215.127z M42.408,85.683C54.556,73.528,71.381,65.999,89.925,66
		c18.546-0.002,35.37,7.527,47.52,19.683c12.155,12.147,19.685,28.973,19.683,47.518c0.002,18.545-7.526,35.368-19.683,47.518
		c-12.148,12.154-28.974,19.687-47.52,19.685c-18.544,0.002-35.368-7.529-47.518-19.685c-12.155-12.147-19.685-28.975-19.683-47.518
		C22.723,114.656,30.253,97.831,42.408,85.683z"/>
	<path fill="none" d="M61.028,162.099c7.408,7.401,17.6,11.969,28.896,11.971c11.3-0.002,21.49-4.568,28.898-11.971
		c7.401-7.408,11.967-17.601,11.969-28.896c-0.002-11.299-4.566-21.49-11.969-28.898c-7.408-7.402-17.6-11.968-28.898-11.97
		c-11.297,0.002-21.488,4.567-28.896,11.97c-7.402,7.408-11.968,17.599-11.97,28.898C49.061,144.498,53.626,154.688,61.028,162.099z
		"/>
	<path fill="none" d="M89.925,31.608c1.662-0.002,3.13-0.662,4.224-1.749c1.086-1.093,1.746-2.56,1.748-4.222
		c-0.002-1.662-0.662-3.129-1.748-4.222c-1.094-1.086-2.562-1.747-4.224-1.749c-1.66,0.002-3.129,0.662-4.222,1.749
		c-1.087,1.093-1.747,2.561-1.749,4.222c0.002,1.662,0.662,3.129,1.749,4.222C86.796,30.946,88.264,31.606,89.925,31.608z"/>
	<path fill="#FFFFFF" stroke="#FFFFFF" stroke-miterlimit="10" d="M50.042,31.608c1.662-0.002,3.129-0.662,4.223-1.749
		c1.087-1.093,1.747-2.56,1.749-4.222c-0.002-1.662-0.662-3.129-1.749-4.222c-1.094-1.086-2.562-1.747-4.223-1.749
		c-1.661,0.002-3.128,0.662-4.222,1.749c-1.087,1.093-1.747,2.561-1.749,4.222c0.002,1.662,0.662,3.129,1.749,4.222
		C46.914,30.946,48.381,31.606,50.042,31.608z"/>
	<path fill="#FFFFFF" d="M129.809,31.608c1.661-0.002,3.128-0.662,4.222-1.749c1.087-1.093,1.747-2.56,1.749-4.222
		c-0.002-1.662-0.662-3.129-1.749-4.222c-1.094-1.086-2.561-1.747-4.222-1.749c-1.661,0.002-3.129,0.662-4.223,1.749
		c-1.088,1.093-1.747,2.561-1.75,4.222c0.003,1.662,0.662,3.129,1.75,4.222C126.68,30.946,128.148,31.606,129.809,31.608z"/>
	<g>
		<path fill="none" stroke="#FFFFFF" stroke-width="8" stroke-miterlimit="10" d="M152.426,166.063c0,16.5-13.5,30-30,30h-65
			c-16.5,0-30-13.5-30-30v-64.999c0-16.5,13.5-30,30-30h65c16.5,0,30,13.5,30,30V166.063z"/>
	</g>
</g>
<g>
	<path fill="#FFFFFF" d="M53.071,144.313c0,3.85-2.925,7-6.5,7s-6.5-3.15-6.5-7v-21.5c0-3.85,2.925-7,6.5-7s6.5,3.15,6.5,7V144.313z
		"/>
</g>
</svg>
