<?xml version="1.0" encoding="utf-8"?>
<!-- Generator: Adobe Illustrator 16.0.0, SVG Export Plug-In . SVG Version: 6.00 Build 0)  -->
<!DOCTYPE svg PUBLIC "-//W3C//DTD SVG 1.1//EN" "http://www.w3.org/Graphics/SVG/1.1/DTD/svg11.dtd">
<svg version="1.1" id="Layer_1" xmlns="http://www.w3.org/2000/svg" xmlns:xlink="http://www.w3.org/1999/xlink" x="0px" y="0px"
	 width="223.127px" height="179.852px" viewBox="-21.638 21.638 223.127 179.852"
	 enable-background="new -21.638 21.638 223.127 179.852" xml:space="preserve">
<g>
	<rect x="-17.638" y="21.638" fill="#FFFFFF" width="215.127" height="179.852"/>
	<path fill="none" d="M21.637,29.638h-35.275v163.852h35.275V29.638z M-5.879,81.559c-2.522-2.516-4.094-6.032-4.092-9.879
		c-0.002-3.845,1.57-7.362,4.092-9.878C-3.363,59.28,0.155,57.707,4,57.709c3.845-0.002,7.363,1.57,9.879,4.093
		c2.522,2.516,4.094,6.033,4.092,9.878c0.002,3.847-1.57,7.363-4.092,9.879C11.363,84.081,7.845,85.654,4,85.651
		C0.154,85.654-3.364,84.081-5.879,81.559z M-5.879,121.443c-2.522-2.517-4.094-6.034-4.092-9.879
		c-0.002-3.847,1.57-7.363,4.092-9.88c2.516-2.521,6.034-4.094,9.879-4.092c3.845-0.002,7.363,1.569,9.879,4.092
		c2.522,2.517,4.094,6.033,4.092,9.88c0.002,3.845-1.57,7.362-4.092,9.879c-2.516,2.521-6.034,4.094-9.879,4.092
		C0.154,125.536-3.364,123.964-5.879,121.443z M-5.879,161.325c-2.522-2.517-4.094-6.034-4.092-9.878
		c-0.002-3.847,1.57-7.364,4.092-9.879c2.516-2.522,6.034-4.095,9.879-4.093c3.845-0.002,7.363,1.57,9.879,4.093
		c2.522,2.515,4.094,6.032,4.092,9.879c0.002,3.845-1.57,7.362-4.092,9.878c-2.516,2.521-6.034,4.094-9.879,4.092
		C0.154,165.419-3.364,163.847-5.879,161.325z"/>
	<path fill="#BE0000" d="M-20.466,22.809c-0.745,0.745-1.172,1.775-1.172,2.829v171.852c0,1.053,0.427,2.083,1.172,2.829
		c0.745,0.744,1.775,1.171,2.828,1.171h43.275h171.852c2.209,0,4-1.791,4-4V25.638c0-1.054-0.428-2.084-1.172-2.829
		c-0.744-0.744-1.774-1.171-2.828-1.171H25.637h-43.275C-18.691,21.638-19.721,22.064-20.466,22.809z M193.489,29.638v163.852
		H29.637V29.638H193.489z M-13.638,29.638h35.275v163.852h-35.275V29.638z"/>
	<path fill="none" d="M193.489,193.489V29.638H29.637v163.852H193.489z M64.045,159.081c-12.155-12.148-19.684-28.973-19.683-47.517
		c-0.002-18.546,7.527-35.37,19.683-47.52C76.192,51.89,93.018,44.36,111.563,44.362c18.545-0.002,35.368,7.526,47.518,19.683
		c12.154,12.148,19.687,28.974,19.685,47.52c0.002,18.544-7.529,35.368-19.685,47.518c-12.147,12.155-28.975,19.685-47.518,19.683
		C93.018,178.766,76.193,171.236,64.045,159.081z"/>
	<path fill="none" d="M153.426,153.424c10.719-10.726,17.338-25.5,17.34-41.859c-0.002-16.361-6.621-31.137-17.34-41.861
		c-10.728-10.72-25.502-17.338-41.861-17.34c-16.361,0.002-31.136,6.62-41.861,17.34c-10.721,10.725-17.339,25.499-17.341,41.861
		c0.002,16.359,6.619,31.135,17.34,41.859c10.725,10.72,25.5,17.338,41.861,17.34C127.924,170.762,142.698,164.144,153.426,153.424z
		 M77.009,146.117c-8.838-8.831-14.315-21.073-14.313-34.554c-0.002-13.482,5.476-25.726,14.313-34.556
		c8.83-8.838,21.072-14.313,34.554-14.313c13.479-0.002,25.723,5.475,34.555,14.313c8.836,8.83,14.313,21.072,14.313,34.556
		c0.002,13.479-5.478,25.723-14.313,34.554c-8.832,8.837-21.073,14.314-34.555,14.313C98.081,160.432,85.839,154.954,77.009,146.117
		z"/>
	<path fill="#BE0000" d="M178.763,111.564c0.002-18.546-7.528-35.37-19.684-47.52c-12.148-12.155-28.973-19.685-47.518-19.683
		c-18.545-0.002-35.371,7.526-47.518,19.683c-12.154,12.149-19.683,28.974-19.682,47.52c-0.002,18.544,7.527,35.368,19.683,47.518
		c12.147,12.155,28.973,19.685,47.518,19.683c18.543,0.002,35.368-7.527,47.518-19.683
		C171.235,146.933,178.765,130.108,178.763,111.564z M52.362,111.564c0.002-16.361,6.619-31.137,17.34-41.861
		c10.725-10.72,25.5-17.338,41.861-17.34c16.358,0.002,31.135,6.62,41.86,17.34c10.72,10.726,17.338,25.5,17.34,41.861
		c-0.002,16.359-6.62,31.135-17.34,41.859c-10.727,10.72-25.502,17.338-41.86,17.34c-16.361-0.002-31.136-6.62-41.861-17.34
		C58.982,142.698,52.364,127.924,52.362,111.564z"/>
	<path fill="none" d="M140.461,140.461c7.401-7.408,11.969-17.6,11.971-28.896c-0.002-11.3-4.568-21.49-11.971-28.898
		c-7.408-7.401-17.601-11.967-28.896-11.969c-11.299,0.002-21.49,4.566-28.898,11.969c-7.402,7.408-11.968,17.6-11.97,28.898
		c0.002,11.297,4.567,21.488,11.97,28.896c7.408,7.402,17.599,11.968,28.898,11.97C122.86,152.428,133.051,147.863,140.461,140.461z
		"/>
	<path fill="#BE0000" d="M146.118,146.117c8.836-8.831,14.313-21.073,14.313-34.554c0.002-13.482-5.478-25.726-14.313-34.556
		c-8.832-8.838-21.073-14.313-34.555-14.313c-13.482-0.002-25.725,5.475-34.554,14.313c-8.838,8.83-14.315,21.072-14.313,34.556
		c-0.002,13.479,5.476,25.723,14.313,34.554c8.83,8.837,21.072,14.314,34.554,14.313
		C125.045,160.432,137.286,154.954,146.118,146.117z M70.695,111.564c0.002-11.3,4.567-21.49,11.97-28.898
		c7.408-7.401,17.599-11.967,28.898-11.969c11.297,0.002,21.487,4.566,28.896,11.969c7.402,7.408,11.969,17.6,11.971,28.898
		c-0.002,11.297-4.567,21.488-11.971,28.896c-7.408,7.402-17.6,11.968-28.896,11.97c-11.3-0.002-21.49-4.567-28.898-11.97
		C75.263,133.052,70.697,122.861,70.695,111.564z"/>
	<path fill="none" d="M9.97,111.564c-0.002-1.662-0.662-3.13-1.749-4.224c-1.093-1.086-2.56-1.746-4.222-1.748
		c-1.662,0.002-3.129,0.662-4.222,1.748c-1.086,1.094-1.747,2.562-1.749,4.224c0.002,1.66,0.662,3.129,1.749,4.222
		c1.093,1.087,2.561,1.747,4.222,1.749c1.662-0.002,3.129-0.662,4.222-1.749C9.308,114.693,9.968,113.225,9.97,111.564z"/>
	<path fill="#BE0000" d="M17.97,111.564c0.002-3.847-1.57-7.363-4.092-9.88c-2.516-2.521-6.034-4.094-9.879-4.092
		c-3.845-0.002-7.363,1.569-9.879,4.092c-2.522,2.517-4.094,6.033-4.092,9.88c-0.002,3.845,1.57,7.362,4.092,9.879
		c2.516,2.521,6.034,4.094,9.879,4.092c3.845,0.002,7.363-1.57,9.879-4.092C16.401,118.927,17.972,115.408,17.97,111.564z
		 M-0.222,115.785c-1.086-1.093-1.747-2.562-1.749-4.222c0.002-1.662,0.662-3.13,1.749-4.224c1.093-1.086,2.561-1.746,4.222-1.748
		c1.662,0.002,3.129,0.662,4.222,1.748c1.087,1.094,1.747,2.562,1.749,4.224c-0.002,1.66-0.662,3.129-1.749,4.222
		c-1.093,1.087-2.56,1.747-4.222,1.749C2.338,117.532,0.871,116.872-0.222,115.785z"/>
	<path fill="none" d="M9.97,151.447c-0.002-1.662-0.662-3.129-1.749-4.223c-1.093-1.087-2.56-1.747-4.222-1.749
		c-1.662,0.002-3.129,0.662-4.222,1.749c-1.086,1.094-1.747,2.562-1.749,4.223c0.002,1.661,0.662,3.128,1.749,4.222
		c1.093,1.087,2.561,1.747,4.222,1.749c1.662-0.002,3.129-0.662,4.222-1.749C9.308,154.575,9.968,153.108,9.97,151.447z"/>
	<path fill="#BE0000" d="M17.97,151.447c0.002-3.847-1.57-7.364-4.092-9.879c-2.516-2.522-6.034-4.095-9.879-4.093
		c-3.845-0.002-7.363,1.57-9.879,4.093c-2.522,2.515-4.094,6.032-4.092,9.879c-0.002,3.845,1.57,7.362,4.092,9.878
		c2.516,2.521,6.034,4.094,9.879,4.092c3.845,0.002,7.363-1.57,9.879-4.092C16.401,158.809,17.972,155.291,17.97,151.447z
		 M-0.222,155.668c-1.086-1.093-1.747-2.561-1.749-4.222c0.002-1.662,0.662-3.129,1.749-4.223c1.093-1.087,2.561-1.747,4.222-1.749
		c1.662,0.002,3.129,0.662,4.222,1.749c1.087,1.094,1.747,2.562,1.749,4.223c-0.002,1.661-0.662,3.128-1.749,4.222
		c-1.093,1.087-2.56,1.747-4.222,1.749C2.338,157.415,0.871,156.755-0.222,155.668z"/>
	<path fill="none" d="M9.97,71.68c-0.002-1.661-0.662-3.128-1.749-4.222c-1.093-1.087-2.56-1.747-4.222-1.749
		c-1.662,0.002-3.129,0.662-4.222,1.749c-1.086,1.094-1.747,2.561-1.749,4.222c0.002,1.661,0.662,3.129,1.749,4.223
		c1.093,1.088,2.561,1.747,4.222,1.75c1.662-0.003,3.129-0.662,4.222-1.75C9.308,74.809,9.968,73.341,9.97,71.68z"/>
	<path fill="#BE0000" d="M17.97,71.68c0.002-3.845-1.57-7.362-4.092-9.878c-2.516-2.521-6.034-4.095-9.879-4.093
		c-3.845-0.002-7.363,1.57-9.879,4.093c-2.522,2.516-4.094,6.033-4.092,9.878c-0.002,3.847,1.57,7.363,4.092,9.879
		c2.516,2.522,6.034,4.096,9.879,4.093c3.845,0.003,7.363-1.569,9.879-4.093C16.401,79.043,17.972,75.526,17.97,71.68z
		 M-0.222,75.902c-1.086-1.094-1.747-2.562-1.749-4.223c0.002-1.661,0.662-3.128,1.749-4.222C0.871,66.371,2.339,65.711,4,65.709
		c1.662,0.002,3.129,0.662,4.222,1.749c1.087,1.094,1.747,2.561,1.749,4.222c-0.002,1.661-0.662,3.129-1.749,4.223
		C7.129,76.99,5.662,77.649,4,77.652C2.338,77.649,0.871,76.989-0.222,75.902z"/>
</g>
</svg>
