<?xml version="1.0" encoding="utf-8"?>
<!-- Generator: Adobe Illustrator 16.0.0, SVG Export Plug-In . SVG Version: 6.00 Build 0)  -->
<!DOCTYPE svg PUBLIC "-//W3C//DTD SVG 1.1//EN" "http://www.w3.org/Graphics/SVG/1.1/DTD/svg11.dtd">
<svg version="1.1" id="Layer_1" xmlns="http://www.w3.org/2000/svg" xmlns:xlink="http://www.w3.org/1999/xlink" x="0px" y="0px"
	 width="179.851px" height="223.127px" viewBox="0 0 179.851 223.127" enable-background="new 0 0 179.851 223.127"
	 xml:space="preserve">
<g>
	<path fill="none" d="M171.851,43.275V8H8v35.275H171.851z M119.93,15.759c2.516-2.522,6.033-4.094,9.879-4.092
		c3.845-0.002,7.363,1.57,9.878,4.092c2.522,2.516,4.095,6.034,4.093,9.879c0.002,3.845-1.57,7.363-4.093,9.879
		c-2.515,2.522-6.033,4.094-9.878,4.092c-3.846,0.002-7.363-1.57-9.879-4.092c-2.522-2.516-4.095-6.034-4.092-9.879
		C115.835,21.792,117.408,18.274,119.93,15.759z M80.046,15.759c2.516-2.522,6.034-4.094,9.879-4.092
		c3.846-0.002,7.363,1.57,9.879,4.092c2.522,2.516,4.094,6.034,4.092,9.879c0.002,3.845-1.569,7.363-4.092,9.879
		c-2.516,2.522-6.033,4.094-9.879,4.092c-3.845,0.002-7.363-1.57-9.879-4.092c-2.521-2.516-4.094-6.034-4.092-9.879
		C75.953,21.792,77.525,18.274,80.046,15.759z M40.164,15.759c2.516-2.522,6.034-4.094,9.878-4.092
		c3.846-0.002,7.364,1.57,9.879,4.092c2.522,2.516,4.094,6.034,4.092,9.879c0.002,3.845-1.57,7.363-4.092,9.879
		c-2.515,2.522-6.033,4.094-9.879,4.092c-3.845,0.002-7.363-1.57-9.878-4.092c-2.522-2.516-4.094-6.034-4.092-9.879
		C36.07,21.792,37.642,18.274,40.164,15.759z"/>
	<path fill="#FFFFFF" d="M178.68,1.172C177.935,0.427,176.905,0,175.851,0H4C2.947,0,1.917,0.427,1.171,1.172
		C0.427,1.917,0,2.947,0,4v43.275v171.852c0,2.209,1.791,4,4,4h171.851c1.054,0,2.084-0.428,2.829-1.172s1.171-1.775,1.171-2.828
		V47.275V4C179.851,2.947,179.425,1.917,178.68,1.172z M171.851,215.127H8V51.275h163.851V215.127z M171.851,8v35.275H8V8H171.851z"
		/>
	<path fill="none" d="M8,215.127h163.851V51.275H8V215.127z M42.408,85.683C54.556,73.528,71.381,65.999,89.925,66
		c18.545-0.002,35.37,7.527,47.519,19.683c12.155,12.147,19.685,28.973,19.683,47.518c0.002,18.545-7.527,35.369-19.683,47.518
		c-12.148,12.154-28.974,19.686-47.519,19.684c-18.544,0.002-35.369-7.529-47.518-19.684
		c-12.155-12.148-19.685-28.975-19.683-47.518C22.723,114.656,30.253,97.831,42.408,85.683z"/>
	<path fill="none" d="M48.065,175.063c10.726,10.719,25.5,17.338,41.86,17.34c16.361-0.002,31.136-6.621,41.861-17.34
		c10.72-10.727,17.338-25.502,17.34-41.861c-0.002-16.361-6.62-31.136-17.34-41.861C121.061,80.62,106.287,74.002,89.925,74
		c-16.36,0.002-31.135,6.619-41.86,17.34c-10.72,10.725-17.338,25.5-17.34,41.861C30.727,149.561,37.345,164.336,48.065,175.063z
		 M55.372,98.647c8.831-8.838,21.073-14.315,34.554-14.313c13.482-0.002,25.725,5.476,34.555,14.313
		c8.838,8.83,14.314,21.072,14.313,34.554c0.002,13.48-5.475,25.723-14.313,34.555c-8.83,8.836-21.072,14.314-34.555,14.313
		c-13.48,0.002-25.723-5.477-34.554-14.313c-8.837-8.832-14.315-21.074-14.313-34.555C41.057,119.719,46.535,107.477,55.372,98.647z
		"/>
	<path fill="#FFFFFF" d="M89.925,200.402c18.545,0.002,35.37-7.529,47.519-19.684c12.155-12.148,19.685-28.973,19.683-47.518
		c0.002-18.545-7.527-35.371-19.683-47.518C125.295,73.528,108.47,65.999,89.925,66c-18.544-0.002-35.369,7.527-47.518,19.683
		c-12.155,12.147-19.685,28.973-19.683,47.518c-0.002,18.543,7.528,35.369,19.683,47.518
		C54.556,192.873,71.381,200.404,89.925,200.402z M89.925,74c16.361,0.002,31.136,6.619,41.861,17.34
		c10.72,10.725,17.338,25.5,17.34,41.861c-0.002,16.359-6.62,31.135-17.34,41.861c-10.726,10.719-25.5,17.338-41.861,17.34
		c-16.36-0.002-31.135-6.621-41.86-17.34c-10.72-10.727-17.338-25.502-17.34-41.861c0.002-16.361,6.62-31.136,17.34-41.861
		C58.791,80.62,73.565,74.002,89.925,74z"/>
	<path fill="none" d="M61.028,162.098c7.408,7.402,17.6,11.969,28.897,11.971c11.299-0.002,21.49-4.568,28.898-11.971
		c7.401-7.408,11.967-17.6,11.969-28.896c-0.002-11.299-4.567-21.49-11.969-28.898c-7.408-7.402-17.6-11.968-28.898-11.97
		c-11.297,0.002-21.489,4.567-28.897,11.97c-7.402,7.408-11.968,17.599-11.97,28.898C49.061,144.498,53.626,154.689,61.028,162.098z
		"/>
	<path fill="#FFFFFF" d="M55.372,167.756c8.831,8.836,21.073,14.314,34.554,14.313c13.482,0.002,25.725-5.477,34.555-14.313
		c8.838-8.832,14.314-21.074,14.313-34.555c0.002-13.482-5.475-25.725-14.313-34.554c-8.83-8.838-21.072-14.315-34.555-14.313
		c-13.48-0.002-25.723,5.476-34.554,14.313c-8.837,8.83-14.315,21.072-14.313,34.554C41.057,146.682,46.535,158.924,55.372,167.756z
		 M89.925,92.333c11.299,0.002,21.49,4.567,28.898,11.97c7.401,7.408,11.967,17.599,11.969,28.898
		c-0.002,11.297-4.567,21.488-11.969,28.896c-7.408,7.402-17.6,11.969-28.898,11.971c-11.297-0.002-21.489-4.568-28.897-11.971
		c-7.402-7.408-11.968-17.6-11.97-28.896c0.002-11.299,4.568-21.49,11.97-28.898C68.437,96.901,78.628,92.335,89.925,92.333z"/>
	<path fill="none" d="M89.925,31.608c1.662-0.002,3.129-0.662,4.223-1.749c1.086-1.093,1.746-2.56,1.748-4.222
		c-0.002-1.662-0.662-3.129-1.748-4.222c-1.094-1.086-2.561-1.747-4.223-1.749c-1.661,0.002-3.129,0.662-4.222,1.749
		c-1.087,1.093-1.747,2.561-1.749,4.222c0.002,1.662,0.662,3.129,1.749,4.222C86.796,30.946,88.264,31.606,89.925,31.608z"/>
	<path fill="#FFFFFF" d="M89.925,39.608c3.846,0.002,7.363-1.57,9.879-4.092c2.522-2.516,4.094-6.034,4.092-9.879
		c0.002-3.845-1.569-7.363-4.092-9.879c-2.516-2.522-6.033-4.094-9.879-4.092c-3.845-0.002-7.363,1.57-9.879,4.092
		c-2.521,2.516-4.094,6.034-4.092,9.879c-0.002,3.845,1.57,7.363,4.092,9.879C82.562,38.039,86.081,39.61,89.925,39.608z
		 M85.704,21.416c1.093-1.086,2.561-1.747,4.222-1.749c1.662,0.002,3.129,0.662,4.223,1.749c1.086,1.093,1.746,2.561,1.748,4.222
		c-0.002,1.662-0.662,3.129-1.748,4.222c-1.094,1.087-2.561,1.747-4.223,1.749c-1.661-0.002-3.129-0.662-4.222-1.749
		c-1.087-1.093-1.747-2.56-1.749-4.222C83.957,23.976,84.617,22.509,85.704,21.416z"/>
	<path fill="none" d="M50.042,31.608c1.662-0.002,3.129-0.662,4.222-1.749c1.087-1.093,1.747-2.56,1.749-4.222
		c-0.002-1.662-0.662-3.129-1.749-4.222c-1.093-1.086-2.561-1.747-4.222-1.749c-1.661,0.002-3.128,0.662-4.222,1.749
		c-1.087,1.093-1.747,2.561-1.749,4.222c0.002,1.662,0.662,3.129,1.749,4.222C46.914,30.946,48.381,31.606,50.042,31.608z"/>
	<path fill="#FFFFFF" d="M50.042,39.608c3.846,0.002,7.364-1.57,9.879-4.092c2.522-2.516,4.094-6.034,4.092-9.879
		c0.002-3.845-1.57-7.363-4.092-9.879c-2.515-2.522-6.033-4.094-9.879-4.092c-3.845-0.002-7.363,1.57-9.878,4.092
		c-2.522,2.516-4.094,6.034-4.092,9.879c-0.002,3.845,1.57,7.363,4.092,9.879C42.68,38.039,46.198,39.61,50.042,39.608z
		 M45.821,21.416c1.093-1.086,2.561-1.747,4.222-1.749c1.662,0.002,3.129,0.662,4.222,1.749c1.087,1.093,1.747,2.561,1.749,4.222
		c-0.002,1.662-0.662,3.129-1.749,4.222c-1.093,1.087-2.561,1.747-4.222,1.749c-1.661-0.002-3.128-0.662-4.222-1.749
		c-1.087-1.093-1.747-2.56-1.749-4.222C44.074,23.976,44.734,22.509,45.821,21.416z"/>
	<path fill="none" d="M129.809,31.608c1.661-0.002,3.128-0.662,4.222-1.749c1.087-1.093,1.747-2.56,1.749-4.222
		c-0.002-1.662-0.662-3.129-1.749-4.222c-1.094-1.086-2.561-1.747-4.222-1.749c-1.661,0.002-3.129,0.662-4.222,1.749
		c-1.088,1.093-1.747,2.561-1.75,4.222c0.003,1.662,0.662,3.129,1.75,4.222C126.68,30.946,128.148,31.606,129.809,31.608z"/>
	<path fill="#FFFFFF" d="M129.809,39.608c3.845,0.002,7.363-1.57,9.878-4.092c2.522-2.516,4.095-6.034,4.093-9.879
		c0.002-3.845-1.57-7.363-4.093-9.879c-2.515-2.522-6.033-4.094-9.878-4.092c-3.846-0.002-7.363,1.57-9.879,4.092
		c-2.522,2.516-4.095,6.034-4.092,9.879c-0.003,3.845,1.569,7.363,4.092,9.879C122.446,38.039,125.963,39.61,129.809,39.608z
		 M125.587,21.416c1.093-1.086,2.561-1.747,4.222-1.749c1.661,0.002,3.128,0.662,4.222,1.749c1.087,1.093,1.747,2.561,1.749,4.222
		c-0.002,1.662-0.662,3.129-1.749,4.222c-1.094,1.087-2.561,1.747-4.222,1.749c-1.661-0.002-3.129-0.662-4.222-1.749
		c-1.088-1.093-1.747-2.56-1.75-4.222C123.84,23.976,124.5,22.509,125.587,21.416z"/>
</g>
</svg>
